<?xml version="1.0" encoding="UTF-8" standalone="no"?>
<!DOCTYPE svg PUBLIC "-//W3C//DTD SVG 1.0//EN" "http://www.w3.org/TR/2001/REC-SVG-20010904/DTD/svg10.dtd">
<svg
   xmlns:svg="http://www.w3.org/2000/svg"
   xmlns="http://www.w3.org/2000/svg"
   version="1.0"
   width="764"
   height="768"
   viewBox="-1.42319997 -1.42319997 50.28639894 50.55140194"
   id="svg3544">
  <defs
     id="defs3546" />
  <path
     d="M 0,23.84 C 0,37.00875 10.62625,47.705 23.72125,47.705 L 23.72125,46.7125 C 11.16,46.7125 0.9925,36.475 0.9925,23.84 C 0.9925,11.23 11.16,0.94375 23.72125,0.94375 C 36.2575,0.94375 46.4725,11.23 46.4725,23.84 C 46.4725,36.475 36.2575,46.7125 23.72125,46.7125 L 23.72125,47.705 C 36.79,47.705 47.44,37.00875 47.44,23.84 C 47.44,10.69875 36.79,-5.6843419e-14 23.72125,-5.6843419e-14 C 10.62625,-5.6843419e-14 0,10.69875 0,23.84"
     id="path2879"
     style="fill:#005FA4;fill-opacity:1;fill-rule:evenodd;stroke:none" />
  <path
     d="M 6.58375,23.84 C 6.58375,33.3525 14.25625,41.0975 23.72125,41.0975 L 23.72125,40.445 C 14.62,40.445 7.2375,33.01375 7.2375,23.84 C 7.2375,14.69125 14.62,7.26 23.72125,7.26 C 32.82,7.26 40.2025,14.69125 40.2025,23.84 C 40.2025,33.01375 32.82,40.445 23.72125,40.445 L 23.72125,41.0975 C 33.16,41.0975 40.85625,33.3525 40.85625,23.84 C 40.85625,14.3525 33.16,6.6075 23.72125,6.6075 C 14.25625,6.6075 6.58375,14.3525 6.58375,23.84"
     id="path2881"
     style="fill:#005FA4;fill-opacity:1;fill-rule:evenodd;stroke:none" />
  <path
     d="M 18.12875,10.2625 C 18.08,10.4575 18.00875,10.65 17.8625,10.8925 C 17.66875,11.085 17.5225,11.23 17.33125,11.375 L 17.5225,11.80875 C 17.8625,11.5675 18.08,11.3025 18.275,11.0375 L 19.09625,12.85 L 19.775,12.53875 L 18.71,10.04375 L 18.12875,10.2625 z"
     id="path2883"
     style="fill:#005FA4;fill-opacity:1;fill-rule:evenodd;stroke:none" />
  <path
     d="M 21.68625,11.6175 L 21.68625,12.0775 C 21.42,12.10125 21.22625,12.0775 21.0825,12.005 C 20.84,11.90875 20.7425,11.76 20.62125,11.54375 L 21.3725,11.375 C 21.42,11.49625 21.46875,11.54375 21.54125,11.5675 C 21.565,11.6175 21.61375,11.6175 21.68625,11.6175 M 21.68625,9.27 L 21.68625,9.68125 C 21.63625,9.68125 21.61375,9.68125 21.565,9.72875 C 21.42,9.72875 21.3,9.8025 21.22625,9.87625 C 21.15375,9.94875 21.10625,10.11625 21.15375,10.2625 C 21.15375,10.4575 21.22625,10.5775 21.3475,10.65 C 21.42,10.69875 21.565,10.72 21.68625,10.69875 L 21.68625,11.10875 C 21.3475,11.15625 21.0825,11.10875 20.81625,10.965 C 20.57375,10.8425 20.42875,10.65 20.38,10.38375 C 20.35625,10.11625 20.42875,9.87625 20.64625,9.6575 C 20.84,9.46 21.15375,9.34375 21.54125,9.27 L 21.68625,9.27 z M 22.55875,9.46 C 22.34,9.295 22.025,9.22125 21.68625,9.27 L 21.68625,9.68125 C 21.76,9.68125 21.88125,9.72875 22.00125,9.8025 C 22.09875,9.87625 22.195,9.995 22.21875,10.14125 C 22.21875,10.31125 22.195,10.40625 22.09875,10.53125 C 22.025,10.60125 21.88125,10.69875 21.76,10.69875 L 21.68625,10.69875 L 21.68625,11.10875 C 21.9525,11.085 22.195,10.965 22.36375,10.7675 C 22.36375,11.085 22.34,11.3025 22.2675,11.4225 C 22.1475,11.54375 22.025,11.6175 21.88125,11.6175 C 21.80875,11.6425 21.735,11.6425 21.68625,11.6175 L 21.68625,12.0775 L 21.88125,12.0775 C 22.29125,12.005 22.65375,11.80875 22.8725,11.5675 C 23.14,11.3025 23.21125,10.915 23.14,10.40625 C 23.06625,9.94875 22.8725,9.60875 22.55875,9.46"
     id="path2885"
     style="fill:#005FA4;fill-opacity:1;fill-rule:evenodd;stroke:none" />
  <path
     d="M 25.12375,9.19625 L 25.12375,9.60875 C 25.05125,9.6575 25.02625,9.6575 24.97875,9.6575 C 24.905,9.68125 24.8325,9.75375 24.785,9.85125 C 24.7125,9.995 24.66375,10.23875 24.64,10.53125 C 24.59125,10.8425 24.59125,11.085 24.64,11.1825 C 24.66375,11.3025 24.7125,11.375 24.785,11.44625 C 24.8575,11.49625 24.93,11.54375 25.02625,11.54375 L 25.12375,11.54375 L 25.12375,11.9575 L 24.97875,11.9575 C 24.59125,11.90875 24.3,11.80875 24.05875,11.54375 C 23.865,11.35125 23.74375,10.965 23.84125,10.40625 C 23.865,9.92375 24.05875,9.585 24.32375,9.39125 C 24.5675,9.22125 24.785,9.14875 25.12375,9.19625 M 25.2925,9.19625 L 25.12375,9.19625 L 25.12375,9.60875 C 25.1725,9.60875 25.19625,9.60875 25.245,9.6575 C 25.3175,9.6575 25.39,9.6575 25.4875,9.72875 C 25.55875,9.75375 25.5825,9.85125 25.6325,9.94875 C 25.65625,10.0675 25.65625,10.335 25.6325,10.65 C 25.5825,10.965 25.55875,11.1825 25.4875,11.3025 C 25.43875,11.4225 25.36625,11.49625 25.2925,11.49625 C 25.245,11.54375 25.1725,11.54375 25.12375,11.54375 L 25.12375,11.9575 C 25.43875,12.005 25.70375,11.90875 25.9225,11.80875 C 26.2125,11.6175 26.3825,11.23 26.43125,10.72 C 26.505,10.23875 26.43125,9.85125 26.165,9.585 C 25.97,9.39125 25.65625,9.22125 25.2925,9.19625"
     id="path2887"
     style="fill:#005FA4;fill-opacity:1;fill-rule:evenodd;stroke:none" />
  <path
     d="M 27.61625,9.6575 L 27.4225,10.0675 L 29.06875,10.7675 C 28.61,10.915 28.22125,11.10875 27.8825,11.375 C 27.545,11.69125 27.3025,12.005 27.15625,12.34375 L 27.85875,12.61 C 27.93125,12.3925 28.07625,12.19875 28.295,11.90875 C 28.535,11.69125 28.8025,11.49625 29.11625,11.3025 C 29.4075,11.15625 29.7225,11.0375 29.94,10.965 L 30.11,10.60125 L 27.61625,9.6575 z"
     id="path2889"
     style="fill:#005FA4;fill-opacity:1;fill-rule:evenodd;stroke:none" />
  <path
     d="M 9.89875,10.40625 C 9.70625,10.19 9.2475,9.72875 8.76125,9.39125 C 8.3275,9.0275 7.86625,8.81125 7.6,9.00375 C 7.33375,9.19625 7.40625,9.295 7.38375,9.535 C 7.31,9.68125 7.18875,9.8025 7.0675,9.92375 C 6.9225,10.04375 6.58375,10.2625 6.415,10.5025 C 6.39,10.65 6.1475,10.5775 6.12375,10.69875 C 6.075,10.795 6.0025,10.8925 6.05,10.98875 C 6.19625,11.49625 7.26125,12.53875 7.26125,12.53875 C 7.26125,12.53875 7.77,13.04625 7.77,12.99875 C 8.10875,13.385 8.495,13.7 8.59375,13.7725 C 8.78625,13.795 9.02875,13.7725 8.97875,13.7 C 8.78625,13.335 8.2525,12.99875 8.03625,12.6825 C 7.72125,12.2725 7.38375,11.9575 7.0675,11.5675 C 6.99625,11.49625 6.9225,11.35125 6.85,11.23 C 6.80125,11.1825 6.80125,11.085 6.85,10.965 C 6.87375,10.8925 6.99625,10.7675 7.11625,10.60125 C 7.26125,10.335 7.50375,10.0675 7.6,9.8025 C 7.69625,9.72875 7.84125,9.60875 7.84125,9.60875 C 7.9625,9.4875 8.18125,9.535 8.3025,9.585 C 8.44875,9.60875 8.8825,9.995 9.415,10.53125 C 9.7775,10.8925 9.87625,10.8425 9.97125,11.25375 C 10.02125,11.4225 9.82625,11.375 9.82625,11.44625 C 9.755,11.6425 9.755,11.80875 10.1425,11.90875 C 10.21375,11.9575 10.36,12.0275 10.43125,11.9575 C 10.48,11.90875 10.43125,11.83375 10.4075,11.69125 C 10.2375,11.23 10.335,11.0375 9.89875,10.40625"
     id="path2891"
     style="fill:#005FA4;fill-opacity:1;fill-rule:evenodd;stroke:none" />
  <path
     d="M 8.06,10.795 C 8.06,10.69875 7.98625,10.5775 7.86625,10.53125 C 7.69625,10.5025 7.40625,10.915 7.455,10.98875 C 7.455,11.10875 7.50375,11.23 7.57625,11.1825 C 7.64875,11.1825 8.10875,10.98875 8.06,10.795"
     id="path2893"
     style="fill:#005FA4;fill-opacity:1;fill-rule:evenodd;stroke:none" />
  <path
     d="M 8.835,11.15625 C 8.64125,11.1825 8.42375,11.23 8.37625,11.23 C 8.23,11.4225 8.18125,11.54375 7.9625,11.76 C 7.98625,11.76 7.91375,11.9575 7.98625,12.0275 C 8.03625,12.14875 8.1575,12.2225 8.3025,12.295 C 8.42375,12.34375 8.71375,12.415 8.835,12.10125 C 8.8825,11.9575 8.68875,11.88125 8.59375,11.83375 L 8.59375,11.76 L 8.71375,11.76 C 8.71375,11.7375 8.97875,11.83375 9.0525,11.83375 C 9.15,11.6425 9.295,11.375 9.15,11.15625 C 9.0525,11.0375 8.97875,11.10875 8.835,11.15625"
     id="path2895"
     style="fill:#005FA4;fill-opacity:1;fill-rule:evenodd;stroke:none" />
  <path
     d="M 16.895,3.48625 C 16.9425,3.46 16.9425,3.46 16.9925,3.41375 C 16.8225,3.22 16.605,2.88 16.5325,2.905 C 16.4825,2.9525 16.45875,2.9525 16.41,3.07375 C 16.33875,3.19625 16.36125,3.29125 16.605,3.46 C 16.725,3.48625 16.7975,3.48625 16.895,3.48625"
     id="path2897"
     style="fill:#005FA4;fill-opacity:1;fill-rule:evenodd;stroke:none" />
  <path
     d="M 18.6375,3.74875 C 18.66125,3.80125 18.71,3.8725 18.71,3.945 C 18.66125,4.11375 18.58875,4.18625 18.54,4.25875 C 18.4675,4.38125 18.51625,4.525 18.58875,4.57375 C 18.855,4.6475 18.90375,4.20875 18.90375,3.8475 C 18.90375,3.67875 18.855,3.5325 18.855,3.41375 C 18.90375,3.29125 19.12,3.19625 19.17,3.22 C 19.19375,3.34 19.24125,3.5325 19.3625,3.72875 C 19.435,3.91875 19.63,4.11375 19.7025,4.13875 C 20.04125,4.25875 19.895,3.9925 19.895,3.74875 C 19.895,3.72875 19.8475,3.72875 19.8225,3.72875 C 19.72625,3.72875 19.65375,3.74875 19.58,3.67875 C 19.55625,3.655 19.315,3.14875 19.315,3.07375 C 19.3625,3.00125 19.55625,2.905 19.58,2.8075 C 19.63,2.70875 19.58,2.56625 19.55625,2.56625 C 19.45875,2.615 18.9275,3.22 18.855,3.29125 C 18.78375,3.34 18.71,3.34 18.66125,3.29125 C 18.6375,3.26625 18.58875,3.00125 19,2.44375 C 19.12,2.25125 19.09625,2.25125 19,2.1775 C 18.9275,2.15375 18.83,2.25125 18.71,2.25125 C 18.58875,2.25125 18.51625,2.225 18.51625,2.1775 C 18.4675,2.10625 18.51625,1.985 18.4675,1.9125 C 18.395,1.7175 18.08,1.84 17.93625,2.0325 C 17.79,2.225 17.33125,3.0975 17.5225,3.26625 C 17.7175,3.36375 17.9125,2.9525 18.08,2.75875 C 18.275,2.56625 18.4675,2.56625 18.51625,2.56625 C 18.71,2.56625 18.275,3.22 18.44375,3.72875 C 18.44375,3.8475 18.25,3.9925 18.12875,3.91875 C 18.12875,3.91875 17.93625,3.60625 17.79,3.5325 C 17.7175,3.5325 17.59625,3.8475 17.7175,3.9925 C 17.79,4.18625 18.1775,4.11375 17.59625,4.89 C 17.45,5.0325 17.45,5.25375 17.45,5.42125 C 17.45,5.63875 17.5225,5.8325 17.66875,5.8325 C 17.8625,5.88 17.985,5.63875 18.00875,5.565 C 18.08,5.495 18.20125,5.18125 18.25,4.83875 C 18.275,4.6 18.20125,4.38125 18.275,4.18625 C 18.37125,4.04 18.4675,3.91875 18.6375,3.74875"
     id="path2899"
     style="fill:#005FA4;fill-opacity:1;fill-rule:evenodd;stroke:none" />
  <path
     d="M 16.74875,4.3325 C 16.9425,4.06625 16.87,3.8475 16.55625,3.655 C 16.45875,3.60625 16.5325,3.8725 16.5325,4.06625 C 16.55625,4.11375 16.5325,4.3325 16.5325,4.405 C 16.4825,4.50125 16.5325,4.7675 16.74875,4.3325"
     id="path2901"
     style="fill:#005FA4;fill-opacity:1;fill-rule:evenodd;stroke:none" />
  <path
     d="M 17.1375,6.2925 L 17.1375,5.76 C 17.08875,5.63875 16.87,5.34875 16.67625,4.7675 C 16.6275,4.6475 16.4825,4.6475 16.4825,4.7675 C 16.4825,4.83875 16.725,5.565 16.74875,6.02625 C 16.7975,6.415 16.8225,6.80125 16.87,7.1875 C 16.895,7.405 17.25875,7.8425 17.33125,7.79375 C 17.4025,7.7675 17.45,7.695 17.355,7.3325 C 17.28125,6.99625 17.20875,6.655 17.1375,6.2925"
     id="path2903"
     style="fill:#005FA4;fill-opacity:1;fill-rule:evenodd;stroke:none" />
  <path
     d="M 21.3475,3.22 C 21.3,3.19625 21.22625,3.26625 21.15375,3.26625 C 20.84,3.29125 20.57375,3.34 20.35625,3.29125 C 20.2825,3.29125 20.18625,3.26625 20.18625,3.19625 C 20.1625,3.14875 20.18625,3.07375 20.18625,2.9525 C 20.18625,2.88 20.1625,2.75875 20.09,2.75875 C 19.9675,2.75875 19.8475,2.88 19.8225,2.9525 C 19.72625,3.025 19.7025,3.07375 19.7025,3.29125 C 19.65375,3.41375 19.65375,3.48625 19.72625,3.5325 C 19.8225,3.60625 20.01625,3.60625 20.18625,3.60625 C 20.55,3.655 20.96,3.72875 21.10625,3.655 C 21.275,3.60625 21.42,3.48625 21.46875,3.46 C 21.49375,3.36375 21.49375,3.26625 21.3475,3.22"
     id="path2905"
     style="fill:#005FA4;fill-opacity:1;fill-rule:evenodd;stroke:none" />
  <path
     d="M 20.09,4.3075 C 19.9675,4.25875 19.895,4.3325 19.775,4.455 C 19.65375,4.57375 19.72625,5.0575 19.58,5.25375 C 19.58,5.22875 19.5075,5.18125 19.45875,5.0575 C 19.435,4.98625 19.435,4.89 19.315,4.83875 C 19.24125,4.79 19.24125,4.91375 19.17,4.98625 C 19.04875,5.155 18.97625,5.25375 18.9275,5.2975 C 18.73375,5.3725 18.83,4.98625 18.66125,4.89 C 18.58875,4.7675 18.44375,4.98625 18.4675,5.18125 C 18.4675,5.2975 18.54,5.495 18.54,5.6125 C 18.58875,5.73625 18.58875,5.905 18.58875,5.95375 C 18.66125,6.1475 18.71,6.38875 18.83,6.53625 C 18.9275,6.68 19.09625,6.655 19,6.2925 C 19,6.09875 18.83,5.76 18.9275,5.565 C 19,5.44625 19.17,5.44625 19.24125,5.5425 C 19.315,5.63875 19.315,5.88 19.38625,5.905 C 19.45875,6.02625 19.58,5.88 19.63,5.76 C 19.65375,5.73625 19.65375,5.565 19.72625,5.3725 C 19.72625,5.25375 19.8225,5.18125 19.8475,5.0575 C 19.895,4.91375 19.895,4.79 20.01625,4.79 C 20.1625,4.7675 20.23375,4.9625 20.30625,5.0575 C 20.30625,5.18125 20.35625,5.25375 20.38,5.42125 C 20.42875,5.5425 20.38,5.905 20.38,6.1475 C 20.35625,6.26875 20.35625,6.3425 20.35625,6.38875 C 20.42875,6.4625 20.50125,6.4875 20.57375,5.95375 C 20.62125,5.3725 20.64625,5.3725 20.57375,4.9625 C 20.57375,4.6475 20.23375,4.3325 20.09,4.3075"
     id="path2907"
     style="fill:#005FA4;fill-opacity:1;fill-rule:evenodd;stroke:none" />
  <path
     d="M 31.49125,3.36375 C 31.29625,3.46 30.86,3.74875 30.595,4.11375 C 30.305,4.455 30.255,4.57375 30.1325,4.50125 C 30.0375,4.50125 30.06125,4.50125 29.8675,4.38125 C 29.65,4.3075 29.48,4.3075 29.31125,4.25875 C 29.14125,4.20875 28.92375,4.38125 28.87625,4.50125 C 28.8025,4.6475 28.87625,4.6475 28.995,4.72 C 29.06875,4.79 29.48,4.91375 29.6025,4.91375 C 29.67375,4.89 29.795,4.91375 29.77125,4.98625 C 29.77125,5.0325 29.26375,5.42125 29.06875,5.565 C 28.87625,5.6875 28.48875,5.95375 28.41625,6.07375 C 28.27,6.22 28.46375,6.3425 28.585,6.3425 C 28.65625,6.3425 28.85,6.195 29.14125,6.09875 C 29.48,6.02625 29.7225,5.88 29.8675,5.76 C 30.0375,5.63875 30.3275,5.2975 30.4,5.25375 C 30.49625,5.22875 31.12625,5.6875 31.29625,5.6875 C 31.3675,5.63875 31.49125,5.5425 31.58625,5.44625 C 31.7075,5.34875 31.63375,5.22875 31.49125,5.22875 C 31.32,5.18125 30.98125,5.0575 30.7875,4.9625 C 30.595,4.83875 30.7625,4.7675 30.86,4.6475 C 30.95625,4.525 31.4175,4.11375 31.63375,3.8725 C 31.9,3.655 31.95,3.48625 31.9,3.46 C 31.8525,3.34 31.68375,3.34 31.49125,3.36375"
     id="path2909"
     style="fill:#005FA4;fill-opacity:1;fill-rule:evenodd;stroke:none" />
  <path
     d="M 30.5675,6.09875 C 30.49625,6.09875 30.4,6.2925 30.3275,6.38875 C 30.305,6.4625 30.37625,6.6075 30.37625,6.7525 C 30.4,6.9225 30.595,7.26 30.71375,7.3325 C 30.7875,7.38125 30.86,7.26 31.03,7.04375 C 31.17375,6.80125 31.17375,6.80125 30.98125,6.53625 C 30.835,6.2925 30.71375,6.09875 30.5675,6.09875"
     id="path2911"
     style="fill:#005FA4;fill-opacity:1;fill-rule:evenodd;stroke:none" />
  <path
     d="M 42.1875,10.69875 C 42.115,10.53125 41.63125,10.38375 41.50875,10.31125 C 41.315,10.23875 41.46,10.11625 41.46,10.0675 C 41.4375,9.995 41.26875,10.04375 41.195,9.94875 C 41.1225,9.87625 41.1225,9.75375 41.17125,9.72875 C 41.17125,9.68125 41.195,9.6575 41.1225,9.585 C 41.05,9.4875 41.05,9.585 40.8075,9.585 C 40.59,9.585 40.59,9.60875 40.59,9.6575 C 40.59,9.72875 40.59,9.8025 40.46875,9.85125 C 40.32375,9.87625 40.2025,9.92375 40.13125,10.04375 C 40.00875,10.19 39.93625,10.23875 39.93625,10.2625 C 39.93625,10.31125 40.00875,10.335 40.0575,10.335 C 40.13125,10.335 40.39625,10.19 40.51625,10.14125 C 40.59,10.11625 40.85625,10.04375 40.905,10.0675 C 40.9775,10.11625 40.9775,10.23875 40.92875,10.23875 C 40.905,10.2625 40.85625,10.2625 40.785,10.23875 C 40.6625,10.23875 40.34875,10.335 40.25,10.40625 C 40.13125,10.5025 40.08125,10.60125 40.15375,10.65 C 40.25,10.7675 40.905,10.7675 41.05,10.72 C 41.07375,10.72 41.1225,10.53125 41.315,10.53125 C 41.4375,10.53125 41.5825,10.65 41.655,10.69875 C 41.72625,10.7675 41.80125,10.7675 41.77625,10.8425 C 41.77625,10.915 41.655,10.915 41.5325,10.965 C 41.46,10.965 41.4375,10.915 41.4375,10.8425 C 41.4375,10.7675 41.38875,10.72 41.26875,10.7675 C 41.17125,10.7675 41.00125,10.8925 40.85625,10.915 C 40.6625,10.965 40.27625,10.98875 40.2025,10.98875 C 40.13125,10.98875 39.74375,10.40625 39.62125,10.335 C 39.55125,10.23875 39.5975,10.19 39.5975,10.11625 C 39.5975,10.0675 40.32375,9.6575 40.54,9.535 C 40.8075,9.4125 40.85625,9.295 40.85625,9.19625 C 40.8075,9.0275 40.54,9.10125 40.39625,9.22125 C 40.25,9.295 39.8875,9.585 39.815,9.68125 C 39.71875,9.75375 39.5975,9.92375 39.525,9.87625 C 39.40375,9.85125 39.40375,9.60875 39.35625,9.535 C 39.33125,9.46 39.25875,9.46 39.1375,9.46 C 38.9675,9.4875 38.895,9.6575 38.53375,9.85125 C 38.3625,9.94875 38.29125,9.94875 38.21875,10.04375 C 38.17,10.0675 38.17,10.19 38.21875,10.23875 C 38.29125,10.31125 38.48375,10.2625 38.605,10.23875 C 38.7025,10.23875 38.79875,10.14125 38.87125,10.11625 C 38.895,10.11625 39.1375,10.38375 39.2825,10.5025 C 39.42875,10.60125 39.93625,11.23 40.00875,11.25375 C 40.27625,11.4225 40.59,11.88125 40.59,11.90875 C 40.61375,11.9575 40.6625,12.0275 40.59,12.0775 C 40.46875,12.14875 40.46875,12.14875 40.46875,12.2225 C 40.51625,12.2725 40.8075,12.48875 40.905,12.53875 C 41.00125,12.53875 41.26875,12.53875 41.315,12.415 C 41.38875,12.3925 41.26875,12.295 41.24375,12.2225 C 41.17125,12.14875 41.17125,11.9575 41.05,11.88125 C 40.905,11.80875 40.39625,11.1825 40.39625,11.1825 C 40.39625,11.15625 40.735,11.085 40.8075,11.10875 C 40.905,11.15625 40.905,11.3025 41.05,11.35125 C 41.1225,11.35125 41.1225,11.3025 41.195,11.3025 C 41.315,11.25375 41.315,11.3025 41.7025,11.3025 C 42.09,11.25375 42.115,11.23 42.1875,11.085 C 42.26,10.98875 42.3075,10.8425 42.1875,10.69875"
     id="path2913"
     style="fill:#005FA4;fill-opacity:1;fill-rule:evenodd;stroke:none" />
  <path
     d="M 39.62125,11.6175 C 39.5975,11.54375 39.1375,11.0375 39.01625,10.965 C 38.895,10.915 38.8225,10.915 38.75,10.965 C 38.7025,11.0375 38.605,11.15625 38.5575,11.1825 C 38.53375,11.23 38.6775,11.35125 38.75,11.375 C 38.8225,11.44625 38.94375,11.6175 39.01625,11.6425 C 39.1375,11.69125 39.2825,11.6425 39.25875,11.76 C 39.25875,11.83375 39.01625,12.0275 38.895,12.005 C 38.6775,12.005 38.48375,11.6425 38.24125,11.44625 C 38.17,11.375 38.02375,11.375 37.9525,11.375 C 37.88,11.3025 37.7825,11.375 37.7825,11.4225 C 37.7825,11.49625 37.88,11.5675 37.88,11.6425 C 37.90375,11.76 37.97625,11.80875 38.0975,11.88125 C 38.29125,12.005 38.48375,12.19875 38.5575,12.2725 C 38.605,12.34375 38.6775,12.415 38.435,12.53875 C 38.24125,12.65875 37.97625,12.73125 37.7575,12.65875 C 37.51625,12.53875 37.37,12.3925 37.34625,12.2225 C 37.2975,12.10125 37.22625,12.2725 37.17625,12.3925 C 37.1525,12.48875 37.03125,12.65875 37.0575,12.73125 C 37.10375,12.8025 37.10375,12.85 37.2975,12.925 C 37.4925,12.94875 37.9525,13.07 38.14625,13.04625 C 38.5575,12.99875 38.7025,12.6825 38.79875,12.6825 C 38.8225,12.6825 38.895,12.8025 38.9675,12.85 C 39.01625,12.87625 39.1375,13.11875 39.2825,13.11875 C 39.40375,13.11875 39.55125,13.07 39.47625,12.8025 C 39.42875,12.6825 39.33125,12.6825 39.16125,12.46375 C 39.16125,12.3925 39.25875,12.2225 39.2825,12.2225 C 39.33125,12.2725 39.815,12.2725 39.8875,12.2225 C 39.93625,12.19875 40.00875,11.9575 39.985,11.90875 C 39.985,11.83375 39.67,11.6425 39.62125,11.6175"
     id="path2915"
     style="fill:#005FA4;fill-opacity:1;fill-rule:evenodd;stroke:none" />
  <path
     d="M 13.87,23.28375 C 13.82125,23.3575 13.7725,23.405 13.72375,23.45375 C 13.33625,24.0825 12.80375,26.1875 12.97375,27.15625 C 13.14375,28.05125 13.21625,28.6325 13.87,29.4325 L 13.87,23.28375 z M 13.87,14.8125 L 13.87,16.7725 C 13.4825,17.13625 13.07125,17.20875 13.23875,17.44875 C 13.33625,17.6425 13.57875,17.62 13.87,17.71625 L 13.87,19.04625 C 13.7475,18.99875 13.60375,18.99875 13.45875,18.99875 C 12.65875,19.04625 12.19875,19.45875 12.19875,19.79875 C 12.19875,20.16125 12.58625,24.20125 12.46625,24.88125 C 12.34375,25.58375 11.4725,27.8575 11.73875,28.97125 C 12.05375,30.03625 13.1675,31.0525 13.43375,31.0525 C 13.53,31.02875 13.69875,30.95375 13.87,30.88125 L 13.87,34.90125 C 12.97375,33.91125 11.23125,31.875 10.67375,30.665 C 9.89875,28.99625 10.4075,27.97875 10.62625,26.28375 C 10.8675,24.59 10.795,21.85375 10.5525,20.35375 C 10.28625,18.2975 10.8925,18.15375 11.54625,17.49875 C 12.15,16.895 12.80375,16.7725 12.97375,15.8775 C 13.04625,15.2225 12.58625,14.93125 12.5375,14.57125 C 12.48875,14.28 13.38625,14.425 13.87,14.8125 M 13.87,16.7725 L 13.87,14.8125 C 13.96625,14.885 14.0625,14.9825 14.11125,15.07875 C 14.425,15.61 14.44875,16.19 13.99,16.65 C 13.96625,16.7 13.9175,16.74875 13.87,16.7725 M 13.87,19.04625 C 14.305,19.145 14.595,19.45875 14.8125,19.53125 L 14.8125,19.58125 L 14.8125,18.39625 C 14.76375,18.2975 14.715,18.27375 14.64375,18.20375 C 14.3775,17.8875 14.08625,17.76625 13.87,17.71625 L 13.87,19.04625 z M 13.87,29.4325 C 13.9175,29.50625 13.96625,29.55375 14.03875,29.625 C 14.25625,29.84125 14.57,30.0125 14.8125,30.1575 L 14.8125,28.1475 C 14.76375,28.07625 14.715,28.00125 14.715,27.97875 C 14.44875,27.495 14.16,26.57625 14.35375,25.51125 C 14.49875,24.49375 14.425,24.1525 14.76375,23.9625 L 14.8125,23.93625 L 14.8125,22.31625 C 14.425,22.7025 14.0625,23.04125 13.87,23.28375 L 13.87,29.4325 z M 13.87,34.90125 C 14.20875,35.29 14.425,35.50625 14.425,35.50625 C 14.425,35.50625 14.305,35.89375 14.16,36.20875 C 14.03875,36.54875 14.35375,36.62 14.52375,36.62 C 14.57,36.62 14.715,36.475 14.8125,36.28125 L 14.8125,36.2325 L 14.8125,32.84375 C 14.44875,32.625 14.16,32.23875 14.03875,31.92375 C 13.96625,31.63625 13.65125,31.43875 14.16,31.32 C 14.25625,31.32 14.52375,31.32 14.8125,31.345 L 14.8125,30.69125 C 14.64375,30.73875 14.44875,30.73875 14.305,30.73875 C 14.13375,30.7625 13.99,30.81125 13.87,30.88125 L 13.87,34.90125 z M 14.9825,32.9425 L 14.9825,35.9175 C 14.93375,35.99 14.86125,36.135 14.8125,36.2325 L 14.8125,32.84375 C 14.86125,32.89375 14.93375,32.91625 14.9825,32.9425 M 14.9825,30.69125 L 14.9825,31.36875 C 14.93375,31.36875 14.86125,31.36875 14.8125,31.345 L 14.8125,30.69125 L 14.9825,30.69125 z M 14.9825,28.44 L 14.9825,30.25375 L 14.8125,30.1575 L 14.8125,28.1475 C 14.86125,28.24625 14.93375,28.3425 14.9825,28.44 M 14.9825,22.14625 L 14.9825,23.81625 C 14.93375,23.84 14.86125,23.88875 14.8125,23.93625 L 14.8125,22.31625 L 14.9825,22.14625 z M 14.9825,18.66 L 14.9825,19.58125 C 14.93375,19.605 14.88625,19.58125 14.8125,19.58125 L 14.8125,18.39625 C 14.88625,18.4675 14.93375,18.565 14.9825,18.66 M 17.45,37.1775 C 17.8625,37.34625 18.25,37.4675 18.54,37.54 L 18.54,35.16875 C 18.3225,35.12 18.12875,34.99625 18.275,34.63375 C 18.3225,34.46625 18.44375,34.2725 18.54,34.0775 L 18.54,32.89375 C 18.25,33.33 17.79,33.85875 17.45,34.0775 L 17.45,37.1775 z M 18.54,20.23625 C 18.12875,20.23625 17.66875,20.23625 17.45,20.18625 L 17.45,20.935 C 17.79,20.8125 18.25,20.695 18.54,20.695 L 18.54,20.23625 z M 17.45,27.8575 C 17.7175,26.84125 18.08,25.72875 18.25,25.125 C 18.275,25.05 18.44375,25.07375 18.54,25.0025 L 18.54,24.27625 C 18.51625,24.27625 18.4675,24.2275 18.51625,24.1525 C 18.51625,24.13125 18.54,24.03375 18.54,23.9625 L 18.54,22.43625 L 18.54,22.46 C 18.44375,22.77625 18.3225,23.16125 18.1775,23.54875 C 17.985,24.2275 18.20125,24.42125 17.645,24.54375 L 17.45,24.54375 L 17.45,25.125 C 17.59625,25.125 17.7175,25.125 17.66875,25.14875 C 17.645,25.2675 17.59625,25.65625 17.45,26.115 L 17.45,27.8575 z M 18.54,29.82125 C 18.275,29.77 17.79,29.82125 17.45,29.82125 L 17.45,30.39875 C 17.645,30.42375 17.81375,30.42375 17.93625,30.47125 C 18.20125,30.47125 18.3225,30.495 18.54,30.93 L 18.54,30.98 L 18.54,29.82125 z M 18.54,37.54 L 18.54,35.16875 C 18.66125,35.1925 18.83,35.1925 18.9275,35.1925 C 19,35.1925 19.09625,35.24 19.17,35.24 L 19.17,37.635 C 19,37.635 18.855,37.635 18.71,37.5875 C 18.66125,37.5875 18.58875,37.54 18.54,37.54 M 18.54,23.9625 L 18.54,22.43625 C 18.83,21.6625 19,21.105 19,20.7675 C 19,20.695 18.855,20.645 18.54,20.695 L 18.54,20.23625 L 19.17,20.23625 L 19.17,22.14625 C 18.97625,22.65375 18.73375,23.3575 18.54,23.9625 M 18.54,25.0025 C 18.58875,25.0025 18.66125,25.0025 18.71,24.9275 C 18.73375,24.8575 18.78375,24.59 18.73375,24.42125 C 18.73375,24.30125 18.6375,24.30125 18.54,24.27625 L 18.54,25.0025 z M 19.17,30.3275 L 19.17,33.475 C 18.97625,33.59375 18.73375,33.81125 18.54,34.0775 L 18.54,32.89375 C 18.73375,32.65 18.855,32.48 18.855,32.385 C 18.9275,32.1175 18.73375,31.43875 18.54,30.98 L 18.54,29.82125 C 18.58875,29.82125 18.6375,29.84125 18.66125,29.84125 C 18.90375,29.94 19,30.0125 19.17,30.3275 M 19.17,37.635 C 19.45875,37.66 19.775,37.70875 20.01625,37.70875 L 20.01625,35.24 C 19.8225,35.3625 19.5075,35.29 19.17,35.24 L 19.17,37.635 z M 19.17,22.14625 C 19.315,21.615 19.435,21.27625 19.45875,21.2025 C 19.5075,21.07875 19.8225,21.105 20.01625,21.105 L 20.01625,20.35375 C 19.895,20.2825 19.55625,20.23625 19.17,20.23625 L 19.17,22.14625 z M 20.01625,31.77875 C 19.58,31.82625 19.435,31.82625 19.26625,30.98 C 19.24125,30.665 19.19375,30.47125 19.17,30.3275 L 19.17,33.475 C 19.19375,33.42625 19.26625,33.42625 19.26625,33.42625 C 19.435,33.42625 19.63,34.055 19.7025,34.34375 C 19.775,34.5125 19.92,34.73 20.01625,34.92625 L 20.01625,34.975 L 20.01625,32.96375 L 20.01625,32.9425 C 19.9675,32.82 19.92,32.74625 20.01625,32.625 L 20.01625,31.77875 z M 20.01625,23.6225 C 19.8475,24.01 19.65375,24.39875 19.58,24.59 C 19.19375,25.63125 19.12,26.62375 19.3625,27.3975 C 19.58,28.125 19.8225,28.6325 20.01625,28.99625 L 20.01625,29.04375 L 20.01625,23.6225 z M 20.01625,37.70875 L 20.01625,35.24 C 20.09,35.16875 20.09,35.095 20.01625,34.975 L 20.01625,32.96375 C 20.04125,33.01375 20.09,33.08625 20.11375,33.20625 C 20.23375,33.545 20.38,33.78625 20.57375,34.44 C 20.7425,34.85375 20.84,35.095 20.96,35.1925 L 20.96,38.9675 C 20.7425,39.13875 20.42875,38.845 20.42875,38.845 C 20.42875,38.845 20.50125,38.6275 20.55,38.435 C 20.62125,38.3125 20.62125,38.1675 20.695,38.02375 C 20.7675,37.7825 20.50125,37.7825 20.01625,37.70875 M 20.01625,21.105 C 20.04125,21.105 20.04125,21.105 20.09,21.07875 C 20.2825,21.01 20.35625,20.57375 20.01625,20.35375 L 20.01625,21.105 z M 20.96,21.85375 L 20.96,23.93625 C 20.695,24.1525 20.62125,24.8575 20.57375,25.2675 C 20.4525,26.0925 20.695,26.69625 20.96,27.205 L 20.96,32.77125 C 20.8875,32.74625 20.81625,32.74625 20.7425,32.69625 C 20.2825,32.48 20.23375,32.385 20.04125,32.625 L 20.01625,32.625 L 20.01625,31.77875 C 20.04125,31.77875 20.04125,31.73125 20.09,31.73125 C 20.55,31.73125 20.9125,31.73125 20.9125,31.345 C 20.9125,31.005 20.7675,30.3275 20.57375,30.03625 C 20.42875,29.77 20.23375,29.48 20.01625,29.04375 L 20.01625,23.6225 C 20.18625,23.18625 20.38,22.77625 20.50125,22.5325 C 20.64625,22.19375 20.7675,22.07375 20.96,21.85375 M 20.96,18.27375 L 20.96,19.19375 C 20.84,19.07125 20.7675,18.93 20.81625,18.61125 C 20.84,18.4675 20.8875,18.3475 20.96,18.27375 M 20.96,38.9675 C 20.96,38.94375 21.00875,38.94375 21.00875,38.94375 C 21.0825,38.8225 21.1775,38.58 21.22625,38.28875 C 21.3,37.9275 21.3725,37.83125 21.3725,37.83125 C 21.3725,37.83125 21.88125,37.855 22.46125,37.9 L 22.46125,35.70125 C 22.36375,35.675 22.29125,35.6275 22.2675,35.55375 C 22.025,35.16875 22.21875,34.65875 22.46125,34.005 L 22.46125,32.1175 C 22.21875,32.165 22.1475,31.46375 22.1475,31.07625 C 22.09875,30.73875 22.00125,30.69125 22.07375,30.1575 C 22.07375,29.965 22.2675,30.08625 22.46125,30.23 L 22.46125,28.97125 C 22.07375,28.72875 21.61375,28.3425 21.3475,27.93125 C 21.22625,27.73875 21.0825,27.495 20.96,27.23 L 20.96,27.205 L 20.96,32.77125 C 21.3,32.96375 21.49375,33.13375 21.68625,33.20625 C 21.92875,33.33 22.00125,33.4975 21.8325,34.175 C 21.63625,34.85375 21.54125,35.29 21.275,35.31125 C 21.15375,35.31125 21.0325,35.31125 20.96,35.1925 L 20.96,38.9675 z M 22.46125,18.95 C 22.2675,18.73375 22.1475,18.49125 22.00125,18.39625 C 21.80875,18.22375 21.22625,17.93625 20.96,18.27375 L 20.96,19.19375 C 21.15375,19.33875 21.46875,19.31375 21.80875,19.43375 C 22.21875,19.53125 22.36375,19.92 22.2675,20.1125 C 21.92875,20.695 21.54125,21.07875 21.1775,21.54 C 21.0825,21.6875 21.00875,21.78375 20.96,21.85375 L 20.96,23.93625 C 21.00875,23.88875 21.00875,23.84 21.0825,23.84 C 21.3725,23.76875 22.025,24.59 22.46125,24.88125 L 22.46125,23.38125 C 22.195,22.895 21.88125,22.24375 22.1475,21.6625 C 22.195,21.4675 22.29125,21.3 22.46125,21.105 L 22.46125,18.95 z M 23.74375,26.47625 L 23.74375,30.78625 C 23.6475,30.73875 23.55125,30.78625 23.4775,30.81125 C 23.28375,30.88125 23.21125,31.245 23.06625,31.89875 C 22.945,32.5775 22.8725,32.5525 22.60625,33.475 C 22.55875,33.62 22.535,33.81125 22.46125,33.98125 L 22.46125,34.005 L 22.46125,32.1175 C 22.68,32.09375 22.72875,31.43875 22.7525,31.15 C 22.8725,30.69125 22.945,30.59375 22.72875,30.42375 C 22.68,30.39875 22.55875,30.3275 22.46125,30.23 L 22.46125,28.97125 L 22.46125,28.99625 C 22.68,29.11625 22.8725,29.1875 23.0175,29.1875 C 23.1875,29.1875 23.52625,27.615 23.74375,26.47625 M 23.74375,24.46875 L 23.74375,25.14875 C 23.45375,25.07375 22.92125,25.14875 22.60625,25.0025 C 22.55875,24.9775 22.535,24.9275 22.46125,24.88125 L 22.46125,23.38125 L 22.46125,23.4275 C 22.55875,23.64625 22.72875,23.84 22.8,24.01 C 22.99375,24.27625 23.38,24.42125 23.74375,24.46875 M 22.46125,37.9 L 22.46125,35.70125 L 22.46125,35.75 C 22.7525,35.84625 23.28375,35.7725 23.74375,35.675 L 23.74375,37.9275 L 23.67125,37.9275 C 23.405,37.9275 22.92125,37.9275 22.46125,37.9 M 23.74375,19.53125 L 23.74375,20.16125 C 23.55125,20.23625 23.405,20.305 23.21125,20.4275 C 22.945,20.62 22.68,20.83875 22.46125,21.105 L 22.46125,18.95 C 22.68,19.31375 22.92125,19.605 23.06625,19.58125 C 23.21125,19.58125 23.4775,19.53125 23.74375,19.53125 M 23.74375,37.9275 C 24.13125,37.9275 24.97875,37.9 25.75375,37.9 L 25.77625,37.9 L 25.77625,35.82 L 25.75375,35.82 C 25.39,35.94125 25.1725,35.84625 25.2925,35.6275 C 25.36625,35.48375 25.5825,35.1925 25.75375,35.095 L 25.77625,35.095 L 25.77625,34.1275 C 25.77625,34.1275 25.75375,34.1275 25.75375,34.175 C 25.70375,34.5125 24.905,35.24 24.44625,35.48375 C 24.3,35.50625 24.01,35.6275 23.74375,35.675 L 23.74375,37.9275 z M 25.77625,31.07625 L 25.75375,31.0525 C 25.2925,30.495 23.7925,29.65 23.7925,29.65 C 23.74375,29.5775 23.74375,29.50625 23.74375,29.4325 L 23.74375,29.23875 C 23.7925,28.31625 24.44625,26.38375 24.5675,25.65625 C 24.5675,25.535 24.59125,25.39 24.64,25.14875 C 24.7125,24.9775 25.19625,25.14875 25.0975,24.49375 C 25.0975,24.34875 24.97875,24.01 24.97875,23.93625 C 25.245,23.0925 25.51125,22.14625 25.75375,21.4675 L 25.77625,21.42 L 25.77625,19.145 L 25.75375,19.145 C 25.2925,19.145 24.8575,19.19375 24.51875,19.33875 C 24.3,19.43375 24.01,19.50875 23.74375,19.53125 L 23.74375,20.16125 C 24.01,20.0875 24.32375,19.99125 24.7125,19.8475 C 25.36625,19.65375 25.43875,20.0875 25.43875,20.0875 C 25.43875,20.0875 25.51125,20.4525 25.12375,21.4925 C 24.73625,22.5825 24.44625,24.34875 24.18,24.46875 C 24.05875,24.49375 23.91375,24.49375 23.74375,24.46875 L 23.74375,25.14875 C 23.865,25.14875 23.91375,25.19375 23.91375,25.2675 C 23.91375,25.34125 23.865,25.8025 23.74375,26.38375 L 23.74375,26.47625 L 23.74375,30.78625 C 23.9375,30.81125 24.13125,31.0525 24.3975,31.15 C 24.785,31.3925 25.05125,31.51125 25.12375,32.3125 C 25.19625,33.13375 25.70375,33.69125 25.75375,34.055 L 25.77625,34.055 L 25.77625,31.07625 z M 25.77625,21.42 C 25.97,20.88625 26.115,20.4525 26.165,20.38 C 26.31,20.1125 26.81625,19.97 26.96375,19.92 C 27.39875,19.895 27.3025,19.65375 27.1075,19.43375 C 27.01125,19.31375 26.5775,19.24375 26.04375,19.19375 C 25.9225,19.145 25.85,19.145 25.77625,19.145 L 25.77625,21.42 z M 27.8825,22.65375 L 27.8825,26.0925 C 27.85875,26.35875 27.76125,26.62375 27.7375,26.84125 C 27.69,27.4225 27.7375,27.8575 27.8825,28.125 L 27.8825,33.40125 C 27.69,33.545 27.495,33.66875 27.3025,33.81125 C 26.76875,34.1275 26.76875,34.5125 26.89125,34.90125 C 26.94,35.24 27.495,35.50625 27.8825,35.55375 L 27.8825,38.70125 C 27.66625,38.94375 27.3025,38.77375 27.3025,38.77375 C 27.3025,38.5075 27.23,38.58 27.35,38.36125 C 27.4225,38.0975 27.47125,37.9 27.47125,37.9 L 25.77625,37.9 L 25.77625,35.82 C 26.165,35.675 26.2125,35.675 26.28625,35.31125 C 26.31,35.045 26.09125,34.99625 25.89875,35.045 C 25.85,35.045 25.82625,35.045 25.77625,35.095 L 25.77625,34.1275 L 25.77625,34.055 L 25.77625,31.07625 C 25.85,31.12625 25.89875,31.19875 25.89875,31.2725 C 26.09125,31.77875 26.31,33.545 26.55125,33.59375 C 26.76875,33.62 27.39875,32.89375 27.495,32.5525 C 27.7375,31.8525 26.76875,31.0525 26.47875,30.54625 C 26.165,30.03625 25.70375,27.97875 26.2125,26.28375 C 26.43125,25.4625 27.23,23.81625 27.8825,22.65375 M 27.8825,38.70125 C 27.95625,38.6275 28.00375,38.5075 28.02875,38.36125 C 28.07625,38.1175 28.07625,37.9275 28.14875,37.70875 C 28.1975,37.66 28.46375,37.635 28.92375,37.515 C 29.04375,37.515 29.14125,37.4675 29.26375,37.4425 L 29.26375,34.975 C 29.14125,34.975 29.11625,34.8275 29.11625,34.46625 C 29.11625,34.2 29.19,33.88375 29.26375,33.62 L 29.26375,31.65875 L 29.21375,31.70625 C 29.11625,31.8525 29.04375,31.9725 28.92375,31.92375 C 28.8025,31.92375 28.65625,31.73125 28.41625,31.2725 C 28.22125,30.88125 28.125,30.39875 28.46375,30.03625 C 28.61,29.8925 28.755,29.82125 28.92375,29.82125 C 29.04375,29.77 29.14125,29.82125 29.26375,29.82125 L 29.26375,28.97125 C 29.14125,28.92375 29.04375,28.92375 28.92375,28.89875 C 28.65625,28.89875 28.46375,28.7775 28.34375,28.72875 C 28.1975,28.5825 28.00375,28.44 27.8825,28.1475 L 27.8825,28.125 L 27.8825,33.40125 C 28.125,33.23125 28.295,33.08625 28.48875,32.96375 C 28.61,32.89375 28.85,32.82 28.92375,32.96375 C 28.94875,33.04 28.94875,33.15875 28.92375,33.3525 C 28.87625,33.42625 28.87625,33.475 28.87625,33.4975 C 28.61,34.2 28.46375,35.50625 28.07625,35.55375 L 27.8825,35.55375 L 27.8825,38.70125 z M 29.26375,20.935 C 29.14125,21.01 29.04375,21.105 28.92375,21.2025 C 28.6825,21.395 28.48875,21.59125 28.39125,21.78375 C 28.27,22.00125 28.07625,22.26875 27.8825,22.60375 L 27.8825,22.65375 L 27.8825,26.0925 L 27.8825,26.0425 C 28.07625,25.14875 28.39125,24.27625 28.48875,24.0825 C 28.65625,23.81625 28.73,23.9625 28.92375,24.13125 C 28.995,24.1525 29.04375,24.2275 29.11625,24.2275 C 29.14125,24.2275 29.21375,24.27625 29.26375,24.30125 L 29.26375,20.935 z M 29.26375,18.22375 C 29.14125,18.22375 29.04375,18.22375 28.92375,18.27375 C 28.8025,18.27375 28.73,18.2975 28.65625,18.39625 C 28.14875,18.8775 28.46375,19.145 28.92375,19.31375 C 29.04375,19.33875 29.14125,19.385 29.26375,19.385 L 29.26375,18.22375 z M 30.1825,28.46375 L 30.1825,30.23 C 29.91625,30.78625 29.795,31.65875 29.67375,32.1175 C 29.6025,32.43125 29.48,32.82 29.38375,33.23125 C 29.335,33.3525 29.31125,33.475 29.26375,33.62 L 29.26375,31.65875 C 29.31125,31.5875 29.335,31.51125 29.38375,31.43875 C 29.4075,31.245 29.45625,30.98 29.52875,30.61875 C 29.67375,30.08625 29.5775,29.94 29.38375,29.8925 C 29.335,29.84125 29.31125,29.84125 29.31125,29.84125 L 29.26375,29.82125 L 29.26375,28.97125 L 29.38375,28.97125 C 29.6025,28.97125 29.8425,28.92375 29.98875,28.85 C 30.06125,28.8275 30.11,28.65625 30.1825,28.46375 M 29.26375,37.4425 L 29.26375,34.975 C 29.31125,34.99625 29.335,34.99625 29.38375,34.99625 C 29.52875,34.975 29.77125,34.85375 30.1325,34.73 L 30.1825,34.73 L 30.1825,37.0575 C 29.8675,37.20125 29.6025,37.3225 29.38375,37.395 C 29.335,37.395 29.31125,37.395 29.26375,37.4425 M 30.1825,20.305 L 30.1825,21.2025 C 30.06125,21.3 29.98875,21.42 29.91625,21.4925 C 29.65,21.9525 29.48,22.07375 29.5775,22.895 C 29.6025,23.50125 29.8675,23.84 30.1825,24.03375 L 30.1825,24.88125 C 29.91625,24.8075 29.6025,24.54375 29.38375,24.39875 C 29.335,24.34875 29.31125,24.30125 29.26375,24.30125 L 29.26375,20.935 C 29.31125,20.88625 29.335,20.88625 29.38375,20.83875 C 29.6025,20.645 29.91625,20.50125 30.1825,20.305 M 30.1825,18.54 L 30.1825,19.70125 C 30.0375,19.605 29.8675,19.53125 29.7225,19.50875 C 29.65,19.45875 29.48,19.45875 29.38375,19.43375 C 29.335,19.43375 29.31125,19.43375 29.26375,19.385 L 29.26375,18.22375 L 29.38375,18.22375 C 29.6025,18.27375 29.8675,18.39625 30.11,18.49125 C 30.11,18.49125 30.1325,18.54 30.1825,18.54 M 30.1825,12.34375 L 30.1825,12.65875 C 29.65,12.3925 29.65,12.2225 30.1825,12.34375 M 30.1825,37.0575 C 30.37625,36.98375 30.5675,36.86125 30.7875,36.78875 L 30.7875,36.74125 L 30.7875,34.44 C 30.595,34.53875 30.37625,34.65875 30.1825,34.73 L 30.1825,37.0575 z M 30.7875,19.19375 C 30.6425,18.93 30.4,18.685 30.1825,18.54 L 30.1825,19.70125 C 30.37625,19.79875 30.5675,19.92 30.71375,19.99125 C 30.5675,20.0875 30.37625,20.18625 30.1825,20.305 L 30.1825,21.2025 C 30.3275,21.01 30.5675,20.8125 30.7875,20.62 L 30.7875,19.19375 z M 30.7875,28.72875 C 30.6675,28.705 30.71375,28.31625 30.7875,27.68875 L 30.7875,27.66375 L 30.7875,24.20125 C 30.595,24.2275 30.37625,24.20125 30.1825,24.03375 L 30.1825,24.88125 C 30.255,24.9275 30.3275,24.9775 30.4,24.9775 C 30.5675,24.9275 30.7625,24.88125 30.7875,24.8575 L 30.7875,24.88125 C 30.7625,25.125 30.595,26.28375 30.44875,26.81625 C 30.37625,27.205 30.305,28.00125 30.1825,28.46375 L 30.1825,30.23 C 30.255,30.03625 30.3275,29.94 30.44875,29.84125 C 30.5675,29.82125 30.6675,29.74625 30.7875,29.69625 L 30.7875,28.72875 z M 30.7875,12.53875 C 30.71375,12.53875 30.6675,12.48875 30.595,12.46375 C 30.44875,12.415 30.305,12.3925 30.1825,12.34375 L 30.1825,12.65875 C 30.305,12.73125 30.4,12.755 30.5675,12.85 C 30.6425,12.925 30.71375,12.94875 30.7875,12.99875 L 30.7875,12.53875 z M 14.9825,19.58125 L 14.9825,19.58125 C 15.2,19.55625 15.2725,19.145 14.9825,18.66 L 14.9825,19.58125 z M 14.9825,23.81625 L 14.9825,22.14625 C 15.78125,21.42 16.605,20.695 16.55625,20.5475 C 16.5325,19.895 16.2175,20.1125 15.83,19.70125 C 15.53875,19.265 15.70875,18.49125 16.725,19.07125 C 17.185,19.33875 16.87,19.895 17.33125,20.16125 C 17.355,20.18625 17.4025,20.18625 17.45,20.18625 L 17.45,20.935 C 17.355,20.96 17.28125,21.01 17.185,21.03375 C 16.67625,21.395 16.45875,21.395 16.14375,21.92875 C 15.56375,22.9925 16.14375,23.16125 16.36125,23.695 C 16.67625,24.30125 17.015,24.54375 17.45,24.54375 L 17.45,25.125 C 17.20875,25.125 16.87,25.14875 16.67625,25.05 C 16.33875,24.8575 16.095,24.59 15.61125,23.9625 C 15.37,23.6725 15.17625,23.71875 14.9825,23.81625 M 14.9825,35.9175 L 14.9825,32.9425 C 15.05625,32.96375 15.1275,32.98875 15.22375,33.01375 C 15.34625,33.04 15.53875,32.625 15.61125,32.23875 C 15.685,31.8525 15.8775,31.5875 15.685,31.46375 C 15.66,31.46375 15.34625,31.4175 14.9825,31.36875 L 14.9825,30.69125 C 15.2725,30.69125 15.49,30.69125 15.49,30.59375 C 15.49,30.52 15.2725,30.39875 14.9825,30.25375 L 14.9825,28.44 C 15.56375,29.1875 16.1675,29.50625 16.36125,29.48 C 16.605,29.4325 16.74875,28.1475 17.08875,27.34875 C 17.20875,27.00875 17.355,26.54875 17.45,26.115 L 17.45,27.8575 L 17.45,27.8825 C 17.185,28.89875 16.9925,29.74625 17.08875,29.77 C 17.1375,29.82125 17.28125,29.82125 17.45,29.82125 L 17.45,30.39875 C 17.1375,30.35 16.8225,30.39875 16.74875,30.54625 C 16.725,30.73875 17.20875,31.3925 17.1375,31.63625 C 16.9425,32.045 16.41,31.5875 16.33875,31.82625 C 16.095,32.5525 15.8775,33.27875 15.83,33.475 C 15.805,33.78625 16.14375,33.73875 16.41,33.935 C 16.725,34.0775 16.74875,34.44 17.20875,34.24875 C 17.28125,34.2 17.355,34.175 17.45,34.0775 L 17.45,37.1775 C 16.45875,36.74125 15.4175,36.135 15.03,35.82 C 15.03,35.82 15.00625,35.84625 14.9825,35.9175 M 32.19125,33.3525 L 32.19125,35.9175 C 32.1425,35.9675 32.07125,36.01625 32.02125,36.0375 C 31.58625,36.33 31.17375,36.54875 30.7875,36.74125 L 30.7875,34.44 C 31.4175,34.055 31.9725,33.57 32.19125,33.3525 M 32.19125,28.65625 L 32.19125,29.5775 C 32.1425,29.53 32.07125,29.50625 32.02125,29.50625 C 31.68375,29.50625 31.17375,29.5775 30.7875,29.69625 L 30.7875,28.72875 C 31.2225,28.8 31.8525,28.65625 32.19125,28.65625 M 32.19125,19.385 L 32.19125,22.07375 C 32.04625,22.5325 31.9,23.0175 31.755,23.54875 C 31.7075,23.745 32.02125,23.93625 32.02125,24.1525 C 31.9725,24.8575 31.49125,24.735 31.44125,24.9775 C 31.17375,25.9675 30.95625,26.96125 30.7875,27.66375 L 30.7875,24.20125 C 30.86,24.1525 30.9075,24.1525 30.95625,24.1525 C 31.17375,24.03375 31.29625,23.23375 31.4175,22.7025 C 31.51375,22.14625 31.9,21.01 32.02125,20.645 C 32.1425,20.35375 32.095,19.77375 31.58625,20.0875 C 31.3675,20.18625 31.10125,20.38 30.7875,20.62 L 30.7875,19.19375 C 30.98125,19.43375 31.10125,19.605 31.17375,19.77375 C 31.51375,19.605 31.77875,19.50875 31.9,19.45875 C 31.9975,19.43375 32.095,19.41 32.19125,19.385 M 32.19125,13.2875 L 32.19125,14.18375 C 31.755,13.725 31.27125,13.2875 30.7875,12.99875 L 30.7875,12.53875 C 31.2475,12.7075 31.73,12.9725 32.19125,13.2875 M 32.19125,14.18375 L 32.19125,13.2875 C 32.8925,13.795 33.57,14.425 34.1525,15.03 L 34.20125,15.03 L 34.20125,16.7725 L 34.1525,16.7725 C 34.00625,16.5075 33.86,16.24 33.61875,15.95 C 33.32875,15.5625 32.79625,14.83875 32.19125,14.18375 M 32.19125,22.07375 L 32.19125,19.385 C 32.62625,19.31375 32.94125,19.43375 32.94125,19.43375 C 32.94125,19.43375 34.4175,19.70125 32.8925,20.18625 C 32.79625,20.21 32.53,20.98625 32.19125,22.07375 M 32.19125,35.9175 L 32.19125,33.3525 L 32.21625,33.33 C 32.50625,33.01375 32.96625,31.92375 32.96625,31.5875 C 32.96625,31.2725 32.6025,29.91625 32.19125,29.5775 L 32.19125,28.65625 C 32.26375,28.6325 32.3125,28.65625 32.36125,28.65625 C 32.62625,28.7775 33.0875,30.23 33.135,30.35 C 33.135,30.35 32.94125,23.3575 33.3525,21.6625 C 33.49875,21.01 33.86,20.50125 34.1525,20.1125 L 34.20125,20.1125 L 34.20125,21.4675 L 34.1525,21.4675 C 34.05625,21.6875 34.00625,21.88 34.00625,22.00125 C 34.00625,22.26875 34.05625,22.60375 34.1525,22.5825 L 34.20125,22.5825 L 34.20125,31.245 C 34.20125,31.2725 34.20125,31.2725 34.1525,31.2725 C 34.1525,31.345 34.12875,31.43875 34.07875,31.51125 C 33.81375,32.19125 33.47375,32.625 33.47375,32.625 C 33.135,33.15875 32.96625,33.59375 33.6675,33.04 C 33.86,32.82 34.00625,32.625 34.1525,32.43125 C 34.20125,32.43125 34.20125,32.385 34.20125,32.385 L 34.20125,34.055 L 34.1525,34.055 C 33.6675,34.58625 32.99,35.33625 32.19125,35.9175 M 36.59625,17.93625 C 36.305,17.49875 35.33875,16.2625 34.20125,15.03 L 34.20125,16.7725 C 35.0725,18.20375 35.31375,19.265 35.31375,19.265 C 35.31375,19.265 34.7325,19.53125 34.20125,20.1125 L 34.20125,21.4675 C 34.39375,21.03375 34.7325,20.57375 34.975,20.35375 C 35.38625,19.97 35.57875,20.35375 35.53125,20.5475 C 35.50625,21.01 35.145,21.34625 34.8775,21.4925 C 34.22375,22.00125 34.4175,22.43625 34.22375,22.5325 C 34.20125,22.5325 34.20125,22.5325 34.20125,22.5825 L 34.20125,31.245 C 34.5875,30.20625 34.54,29.5775 34.51375,28.31625 C 34.46625,26.84125 34.39375,25.39 34.54,25.63125 C 34.7325,25.84875 35.1925,27.73875 35.1925,28.65625 C 35.145,30.47125 35.145,31.15 34.20125,32.385 L 34.20125,34.055 C 34.39375,33.85875 34.5875,33.66875 34.7325,33.4975 C 35.99125,32.3125 36.305,30.47125 36.5225,29.8925 C 36.71625,29.2875 36.57125,28.44 36.18625,27.34875 C 35.87125,26.31 35.46,24.8575 35.265,23.9625 C 35.0475,23.0925 34.975,22.34 35.24,21.9525 C 35.46,21.59125 35.50625,21.54 35.87125,21.735 C 36.18625,21.88 36.33,22.26875 36.18625,23.84 C 36.04,25.51125 36.23375,25.89625 36.6925,24.88125 C 37.0575,23.9625 37.03125,22.96875 37.0575,22.34 C 37.1525,21.6875 37.25,21.105 37.42,20.8125 C 37.565,20.50125 37.1525,18.805 36.59625,17.93625"
     id="path2917"
     style="fill:#005FA4;fill-opacity:1;fill-rule:evenodd;stroke:none" />
  <path
     d="M 3.58375,30.47125 C 3.51,30.42375 3.4375,30.39875 3.365,30.35 C 2.9775,30.1575 2.71125,29.82125 2.59,29.3575 C 2.49375,28.92375 2.56625,28.5125 2.76,28.125 C 2.9775,27.73875 3.365,27.47375 3.84875,27.34875 C 3.96875,27.30125 4.13875,27.275 4.23625,27.275 L 4.285,27.275 L 4.285,27.8575 C 4.21125,27.8575 4.13875,27.8825 4.0175,27.8825 C 3.48625,28.00125 3.1225,28.24625 2.90625,28.535 C 2.71125,28.7775 2.71125,29.04375 2.76,29.31125 C 2.8325,29.625 3.02625,29.84125 3.31625,29.965 C 3.4125,30.0125 3.48625,30.03625 3.55875,30.03625 C 3.63125,30.08625 3.7025,30.08625 3.82375,30.08625 L 3.84875,30.08625 C 3.945,30.08625 4.0175,30.08625 4.0425,30.03625 L 4.23625,30.03625 L 4.285,30.0125 L 4.285,30.59375 C 4.0425,30.59375 3.82375,30.54625 3.58375,30.47125 M 4.285,30.59375 C 4.43,30.59375 4.55125,30.54625 4.69625,30.495 C 5.155,30.35 5.5425,30.1325 5.785,29.74625 C 6.0025,29.31125 6.075,28.92375 5.95375,28.5125 C 5.8575,28.07625 5.615,27.7875 5.2275,27.5425 C 5.155,27.495 5.08375,27.47375 5.03375,27.4225 C 5.01,27.4225 5.01,27.4225 5.01,27.3975 C 4.93875,27.3975 4.86375,27.34875 4.76875,27.34875 L 4.76875,27.30125 C 4.69625,27.30125 4.6225,27.30125 4.55125,27.275 L 4.47875,27.275 L 4.30875,27.275 L 4.285,27.275 L 4.285,27.8575 C 4.59875,27.7875 4.8175,27.7875 5.03375,27.81 L 5.03375,27.8575 C 5.13125,27.8575 5.20375,27.8825 5.2775,27.8825 C 5.5425,28.00125 5.68875,28.24625 5.785,28.5125 C 5.8575,28.8275 5.80875,29.0925 5.66375,29.31125 C 5.4225,29.5775 5.03375,29.82125 4.5025,29.965 C 4.43,30.0125 4.35625,30.0125 4.285,30.0125 L 4.285,30.59375 z"
     id="path2919"
     style="fill:#005FA4;fill-opacity:1;fill-rule:evenodd;stroke:none" />
  <path
     d="M 2.56625,25.125 L 5.03375,24.9275 L 5.08375,25.44 C 5.13125,25.535 5.08375,25.65625 5.03375,25.72875 C 5.01,25.84875 4.9625,25.89625 4.86375,25.9675 C 4.8175,25.995 4.69625,25.995 4.55125,26.0425 L 4.59875,26.165 L 5.35,26.0425 L 5.155,23.3575 L 4.405,23.3575 L 4.405,23.45375 C 4.55125,23.45375 4.6725,23.45375 4.745,23.54875 C 4.86375,23.57375 4.89,23.64625 4.93875,23.745 C 4.9625,23.81625 4.9625,23.93625 5.01,24.0825 L 5.01,24.46875 L 2.51875,24.665 C 2.32375,24.665 2.22625,24.665 2.13125,24.615 C 2.0575,24.59 1.98625,24.46875 1.98625,24.30125 L 1.98625,24.20125 L 1.9125,24.2275 L 1.98625,25.63125 L 2.105,25.63125 L 2.105,25.51125 C 2.0575,25.39 2.105,25.2675 2.13125,25.19375 C 2.22625,25.14875 2.32375,25.14875 2.56625,25.125"
     id="path2921"
     style="fill:#005FA4;fill-opacity:1;fill-rule:evenodd;stroke:none" />
  <path
     d="M 7.84125,33.66875 C 7.9625,33.69125 8.03625,33.73875 8.10875,33.88375 L 8.1575,34.005 L 8.23,33.98125 L 7.72125,32.9425 L 7.6,32.96375 L 7.69625,33.04 C 7.72125,33.15875 7.77,33.27875 7.72125,33.3525 C 7.69625,33.42625 7.57625,33.4975 7.40625,33.62 L 5.68875,34.46625 L 6.99625,31.51125 L 6.58375,30.73875 L 6.51125,30.73875 C 6.58375,30.86 6.58375,30.88125 6.58375,30.98 C 6.60875,31.0525 6.60875,31.15 6.58375,31.19875 C 6.58375,31.2725 6.58375,31.345 6.51125,31.51125 L 4.43,32.5525 C 4.285,32.625 4.1625,32.65 4.0925,32.65 C 3.96875,32.65 3.945,32.5775 3.84875,32.48 L 3.82375,32.36125 L 3.7025,32.385 L 4.23625,33.42625 L 4.30875,33.40125 L 4.285,33.27875 C 4.21125,33.15875 4.21125,33.04 4.23625,32.96375 C 4.285,32.9425 4.35625,32.84375 4.55125,32.74625 L 6.3425,31.82625 L 4.9625,34.99625 L 5.01,35.045 L 7.50375,33.78625 C 7.69625,33.69125 7.795,33.66875 7.84125,33.66875"
     id="path2923"
     style="fill:#005FA4;fill-opacity:1;fill-rule:evenodd;stroke:none" />
  <path
     d="M 9.6825,38.1175 L 9.755,38.0975 L 8.9075,37.0775 L 8.835,37.1775 C 8.95625,37.24875 8.97875,37.34625 8.97875,37.395 L 8.97875,37.54 C 8.95625,37.635 8.8825,37.70875 8.76125,37.7825 L 8.03625,38.435 C 7.91375,38.36125 7.795,38.3125 7.72125,38.24 C 7.6,38.19375 7.5275,38.0975 7.40625,38.02375 C 7.31,37.855 7.2375,37.66 7.18875,37.4425 C 7.14,37.20125 7.18875,36.935 7.31,36.66625 C 7.40625,36.425 7.6,36.20875 7.84125,35.9675 C 8.1575,35.75 8.495,35.58 8.835,35.55375 C 9.2225,35.50625 9.56,35.6275 9.82625,35.9675 C 10.02125,36.20875 10.095,36.475 10.095,36.74125 C 10.07,36.935 9.97125,37.1275 9.87625,37.34625 L 9.89875,37.4425 L 10.67375,36.6925 L 10.60125,36.62 C 10.53,36.66625 10.48,36.6925 10.43125,36.6925 C 10.4075,36.6925 10.36,36.6925 10.36,36.66625 C 10.335,36.62 10.28625,36.59375 10.28625,36.475 C 10.21375,36.33 10.1425,36.20875 10.095,36.08625 C 10.07,36.01625 9.97125,35.89375 9.89875,35.82 C 9.70625,35.55375 9.44,35.38625 9.2225,35.29 C 8.8825,35.1925 8.56875,35.16875 8.18125,35.24 C 7.91375,35.31125 7.64875,35.435 7.40625,35.6275 C 7.11625,35.89375 6.9225,36.20875 6.85,36.59375 C 6.72875,37.1275 6.87375,37.635 7.31,38.1175 C 7.455,38.28875 7.6,38.435 7.77,38.555 C 7.91375,38.6275 8.10875,38.74875 8.2525,38.8225 L 9.0525,38.1675 C 9.17375,38.04875 9.295,37.975 9.36875,37.975 C 9.44,37.9275 9.56,38.02375 9.63375,38.0975 L 9.6825,38.1175 z"
     id="path2925"
     style="fill:#005FA4;fill-opacity:1;fill-rule:evenodd;stroke:none" />
  <path
     d="M 12.51375,38.6275 C 12.61,38.58 12.7075,38.6275 12.80375,38.70125 L 12.925,38.77375 L 12.97375,38.70125 L 11.86,37.83125 L 11.8125,37.9 L 11.88375,37.975 C 11.98125,38.02375 12.005,38.0975 12.05375,38.1675 L 12.05375,38.3125 C 12.05375,38.36125 11.98125,38.435 11.86,38.58 L 10.43125,40.3475 C 10.36,40.4675 10.28625,40.515 10.21375,40.515 C 10.1425,40.54 10.095,40.54 10.07,40.515 C 10.02125,40.4675 10.02125,40.39625 10.07,40.32375 C 10.095,40.18 10.095,40.0575 10.095,40.0075 C 10.095,39.93375 10.07,39.93375 10.02125,39.88625 C 9.97125,39.815 9.89875,39.815 9.82625,39.815 C 9.755,39.815 9.70625,39.8625 9.6825,39.93375 C 9.60875,40.0075 9.56,40.0825 9.60875,40.2 C 9.60875,40.32375 9.70625,40.445 9.82625,40.515 C 9.9475,40.6375 10.1425,40.71125 10.28625,40.71125 C 10.48,40.71125 10.62625,40.6375 10.7475,40.54 C 10.8925,40.4675 11.06,40.3475 11.2075,40.13125 L 12.2475,38.89375 C 12.34375,38.70125 12.44125,38.6275 12.51375,38.6275"
     id="path2927"
     style="fill:#005FA4;fill-opacity:1;fill-rule:evenodd;stroke:none" />
  <path
     d="M 13.65125,39.235 L 13.7725,39.33 C 13.845,39.355 13.89375,39.40375 13.9175,39.475 C 13.96625,39.525 13.96625,39.5975 13.96625,39.62125 C 13.96625,39.6675 13.89375,39.79125 13.845,39.93375 L 12.73125,41.775 C 12.65875,41.94625 12.58625,42.04125 12.51375,42.09 C 12.44125,42.1375 12.32,42.09 12.19875,42.04125 L 12.0775,41.96875 L 12.05375,42.04125 L 13.26375,42.79125 L 13.3125,42.67 L 13.23875,42.62125 C 13.1675,42.5975 13.1175,42.525 13.04625,42.4775 C 12.99875,42.40375 12.99875,42.355 12.99875,42.33125 C 12.99875,42.235 13.07125,42.16375 13.1675,42.015 L 14.2325,40.18 C 14.35375,40.0075 14.425,39.88625 14.44875,39.8625 C 14.57,39.815 14.69125,39.8625 14.8125,39.93375 L 14.88625,39.9825 L 14.91125,39.88625 L 13.72375,39.20875 L 13.65125,39.235 z"
     id="path2929"
     style="fill:#005FA4;fill-opacity:1;fill-rule:evenodd;stroke:none" />
  <path
     d="M 19.895,41.825 L 20.01625,41.8475 C 20.1625,41.89625 20.23375,41.94625 20.2825,42.04125 C 20.30625,42.09 20.30625,42.235 20.23375,42.43 L 19.92,43.73625 C 19.8475,44.09625 19.72625,44.31375 19.65375,44.48625 C 19.55625,44.5825 19.435,44.68 19.24125,44.70375 C 19,44.7775 18.855,44.7775 18.6375,44.70375 C 18.44375,44.68 18.3225,44.6325 18.25,44.51125 C 18.12875,44.4375 18.05625,44.36375 18.00875,44.245 C 17.985,44.12125 17.985,44.02625 18.00875,43.8325 C 18.00875,43.6625 18.00875,43.51875 18.05625,43.39625 L 18.44375,41.96875 C 18.4675,41.775 18.51625,41.70125 18.58875,41.63 C 18.6375,41.5825 18.73375,41.5575 18.855,41.5825 L 19,41.63 L 19,41.5575 L 17.645,41.19375 L 17.59625,41.29125 L 17.74125,41.315 C 17.8625,41.365 17.93625,41.38875 17.985,41.48375 C 18.00875,41.5575 18.00875,41.6775 17.985,41.8475 L 17.645,43.13125 C 17.5475,43.51875 17.5225,43.78375 17.5225,43.92875 C 17.5475,44.17125 17.645,44.36375 17.79,44.51125 C 17.93625,44.70375 18.20125,44.825 18.54,44.94625 C 18.855,45.01875 19.17,45.01875 19.3625,44.94625 C 19.58,44.825 19.72625,44.70375 19.8475,44.56 C 19.9675,44.38875 20.04125,44.12125 20.11375,43.8325 L 20.4525,42.525 C 20.50125,42.33125 20.55,42.21 20.57375,42.16375 C 20.695,42.09 20.81625,42.04125 20.9125,42.09 L 21.0325,42.1375 L 21.0825,42.04125 L 19.92,41.74875 L 19.895,41.825 z"
     id="path2931"
     style="fill:#005FA4;fill-opacity:1;fill-rule:evenodd;stroke:none" />
  <path
     d="M 24.05875,42.21 L 24.18,42.21 C 24.32375,42.21 24.3975,42.235 24.44625,42.33125 C 24.47125,42.355 24.51875,42.525 24.51875,42.69375 L 24.44625,44.6325 L 22.535,42.04125 L 21.61375,42.015 L 21.61375,42.1375 C 21.735,42.1375 21.80875,42.1375 21.8325,42.16375 C 21.92875,42.21 22.00125,42.21 22.025,42.235 C 22.09875,42.2825 22.1475,42.355 22.2675,42.525 L 22.195,44.7775 C 22.195,44.96875 22.1475,45.0925 22.09875,45.165 C 22.025,45.23875 21.9525,45.28625 21.80875,45.28625 L 21.68625,45.28625 L 21.68625,45.35625 L 22.82375,45.40375 L 22.82375,45.33375 L 22.72875,45.33375 C 22.60625,45.33375 22.48625,45.23875 22.46125,45.2125 C 22.41375,45.13875 22.36375,45.01875 22.41375,44.7775 L 22.46125,42.79125 L 24.5675,45.5275 L 24.64,45.5275 L 24.7125,42.69375 C 24.7125,42.525 24.73625,42.40375 24.785,42.355 C 24.8575,42.2825 24.93,42.235 25.0975,42.235 L 25.19625,42.235 L 25.19625,42.16375 L 24.05875,42.09 L 24.05875,42.21 z"
     id="path2933"
     style="fill:#005FA4;fill-opacity:1;fill-rule:evenodd;stroke:none" />
  <path
     d="M 27.81125,44.94625 L 27.56875,44.94625 C 27.495,44.89625 27.47125,44.89625 27.4225,44.87375 C 27.4225,44.7775 27.39875,44.68 27.35,44.51125 L 26.96375,42.40375 C 26.89125,42.21 26.89125,42.09 26.94,42.015 C 27.01125,41.94625 27.085,41.89625 27.205,41.8475 L 27.3025,41.825 L 27.3025,41.74875 L 25.89875,42.015 L 25.9225,42.09 L 26.04375,42.09 L 26.28625,42.09 C 26.31,42.1375 26.3575,42.1375 26.3825,42.16375 C 26.43125,42.21 26.43125,42.355 26.47875,42.525 L 26.89125,44.6325 C 26.94,44.825 26.94,44.94625 26.89125,45.01875 C 26.89125,45.0925 26.76875,45.13875 26.62375,45.165 L 26.55125,45.2125 L 26.55125,45.28625 L 27.93125,45.01875 L 27.93125,44.94625 L 27.81125,44.94625 z"
     id="path2935"
     style="fill:#005FA4;fill-opacity:1;fill-rule:evenodd;stroke:none" />
  <path
     d="M 30.595,40.78375 L 30.6425,40.905 L 30.6675,40.85625 C 30.7875,40.85625 30.86,40.85625 30.95625,40.905 C 30.98125,40.905 31.03,40.9275 31.03,40.97625 C 31.05375,41.04875 31.05375,41.19375 31.05375,41.38875 L 30.95625,43.47 L 29.52875,41.89625 C 29.38375,41.74875 29.31125,41.6775 29.31125,41.5825 C 29.26375,41.50875 29.26375,41.48375 29.31125,41.4375 C 29.335,41.365 29.4075,41.315 29.5775,41.2425 L 29.52875,41.17 L 28.27,41.63 L 28.27,41.70125 C 28.39125,41.6775 28.46375,41.6775 28.535,41.6775 C 28.585,41.6775 28.65625,41.70125 28.73,41.70125 C 28.73,41.74875 28.8025,41.775 28.92375,41.94625 L 31.03,44.245 L 31.10125,44.19625 L 31.29625,41.17 C 31.29625,40.97625 31.32,40.85625 31.3675,40.735 C 31.44125,40.66125 31.49125,40.58875 31.58625,40.54 L 31.5625,40.4675 L 30.595,40.78375 z"
     id="path2937"
     style="fill:#005FA4;fill-opacity:1;fill-rule:evenodd;stroke:none" />
  <path
     d="M 35.725,40.71125 C 35.775,40.9275 35.725,41.12375 35.725,41.2425 C 35.70125,41.365 35.6525,41.48375 35.605,41.50875 C 35.53125,41.5825 35.46,41.6775 35.265,41.775 L 34.805,42.09 C 34.7325,42.1375 34.68375,42.1375 34.61125,42.1375 C 34.5875,42.16375 34.5875,42.1375 34.54,42.1375 C 34.51375,42.09 34.46625,42.04125 34.39375,41.89625 L 33.78875,41.025 L 34.39375,40.58875 C 34.51375,40.515 34.5875,40.4675 34.68375,40.4675 C 34.7325,40.4675 34.805,40.4675 34.8775,40.515 C 34.92625,40.515 34.99875,40.6375 35.12,40.735 L 35.145,40.66125 L 34.54,39.6925 L 34.46625,39.79125 C 34.5875,39.93375 34.5875,40.0575 34.5875,40.18 C 34.54,40.24875 34.46625,40.3475 34.3225,40.4675 L 33.69125,40.85625 L 32.96625,39.7425 L 33.74,39.235 C 33.885,39.15875 33.95875,39.09 34.05625,39.09 C 34.12875,39.04 34.20125,39.09 34.2725,39.13875 C 34.345,39.15875 34.46625,39.20875 34.5875,39.355 L 34.65875,39.33 L 34.22375,38.70125 L 32.095,40.0825 L 32.1425,40.2 L 32.24,40.13125 C 32.3125,40.0575 32.43375,40.0075 32.50625,40.0575 C 32.6025,40.0575 32.67625,40.18 32.7725,40.3475 L 33.95875,42.1375 C 34.05625,42.2825 34.12875,42.355 34.12875,42.43 C 34.12875,42.4775 34.12875,42.525 34.07875,42.5975 C 34.05625,42.67 34.00625,42.69375 33.93375,42.74375 L 33.86,42.8175 L 33.885,42.88875 L 36.04,41.50875 L 35.7975,40.6375 L 35.725,40.71125 z"
     id="path2939"
     style="fill:#005FA4;fill-opacity:1;fill-rule:evenodd;stroke:none" />
  <path
     d="M 36.71625,36.74125 L 36.71625,37.0775 L 36.6925,37.0775 C 36.57125,37.0775 36.5,37.1275 36.3775,37.20125 C 36.33,37.24875 36.305,37.275 36.2575,37.3225 C 36.18625,37.34625 36.1125,37.4675 36.04,37.5875 L 36.71625,38.36125 L 36.71625,39.04 L 35.91875,38.19375 C 35.775,38.04875 35.6525,37.9275 35.605,37.9275 C 35.50625,37.9275 35.41,37.975 35.31375,38.04875 L 35.24,38.1675 L 35.145,38.0975 L 36.04,37.24875 C 36.305,37.00875 36.5,36.86125 36.645,36.78875 C 36.6925,36.74125 36.71625,36.74125 36.71625,36.74125 M 39.35625,38.3125 C 39.25875,38.36125 39.01625,38.36125 38.79875,38.28875 L 37.6125,38.0975 C 37.7825,37.855 37.88,37.635 37.88,37.4425 C 37.83125,37.20125 37.7575,37.0575 37.6125,36.88625 C 37.4925,36.78875 37.34625,36.66625 37.1525,36.66625 L 37.03125,36.66625 C 36.95875,36.66625 36.83875,36.66625 36.765,36.6925 L 36.71625,36.74125 L 36.71625,37.0775 L 36.765,37.0775 C 36.95875,37.0775 37.10375,37.1775 37.25,37.3225 C 37.42,37.4675 37.4425,37.635 37.4425,37.855 C 37.42,38.04875 37.2975,38.28875 37.0575,38.5075 C 37.0575,38.5075 37.03125,38.5075 37.03125,38.555 C 37.03125,38.555 36.9825,38.58 36.95875,38.58 L 36.71625,38.36125 L 36.71625,39.04 L 37.42,39.7425 C 37.51625,39.8625 37.6125,39.9825 37.6125,40.0075 C 37.6375,40.13125 37.6125,40.24875 37.4925,40.3475 L 37.42,40.445 L 37.4425,40.515 L 38.48375,39.475 L 38.435,39.42625 L 38.34,39.525 C 38.24125,39.62125 38.17,39.62125 38.07125,39.62125 C 37.97625,39.62125 37.88,39.5475 37.7575,39.40375 L 37.0575,38.70125 C 37.10375,38.70125 37.10375,38.67625 37.1525,38.67625 C 37.1525,38.6275 37.17625,38.6275 37.17625,38.6275 C 37.22625,38.58 37.25,38.5075 37.34625,38.48125 L 39.21,38.77375 L 39.865,38.19375 L 39.79,38.1175 C 39.62125,38.24 39.47625,38.3125 39.35625,38.3125"
     id="path2941"
     style="fill:#005FA4;fill-opacity:1;fill-rule:evenodd;stroke:none" />
  <path
     d="M 41.34,34.70875 C 41.24375,34.63375 41.1225,34.58625 41.00125,34.58625 C 40.85625,34.53875 40.735,34.58625 40.59,34.63375 C 40.44375,34.63375 40.2025,34.73 39.8875,34.90125 C 39.525,35.095 39.25875,35.1925 39.08875,35.1925 C 38.9675,35.24 38.895,35.1925 38.79875,35.16875 C 38.7025,35.045 38.62875,34.975 38.605,34.8275 C 38.605,34.65875 38.62875,34.5125 38.7025,34.34375 C 38.79875,34.24875 38.895,34.175 39.065,34.0775 C 39.21,34.005 39.35625,33.98125 39.525,34.005 C 39.67,34.005 39.815,34.055 40.00875,34.175 L 40.08125,34.0775 L 39.1375,33.42625 L 39.08875,33.4975 C 39.1375,33.545 39.16125,33.62 39.16125,33.62 L 39.16125,33.73875 C 39.1375,33.78625 39.065,33.81125 38.9675,33.88375 C 38.79875,34.005 38.6775,34.1275 38.5575,34.2725 C 38.4125,34.46625 38.34,34.73 38.3625,34.975 C 38.4125,35.24 38.53375,35.435 38.7025,35.58 C 38.8225,35.6275 38.94375,35.70125 39.065,35.70125 C 39.21,35.75 39.33125,35.70125 39.47625,35.675 C 39.62125,35.6275 39.865,35.50625 40.15375,35.38625 C 40.44375,35.24 40.61375,35.16875 40.71125,35.12 C 40.8075,35.095 40.92875,35.095 41.00125,35.095 C 41.1225,35.095 41.17125,35.12 41.24375,35.1925 C 41.38875,35.29 41.46,35.38625 41.46,35.55375 C 41.46,35.70125 41.4375,35.89375 41.315,36.0375 C 41.195,36.20875 41.07375,36.28125 40.92875,36.3525 C 40.785,36.425 40.6625,36.475 40.51625,36.475 C 40.34875,36.475 40.2025,36.4025 39.985,36.33 L 39.93625,36.3525 L 40.85625,37.0575 L 40.905,36.98375 C 40.85625,36.88625 40.8075,36.86125 40.8075,36.8125 C 40.8075,36.78875 40.8075,36.78875 40.85625,36.74125 C 40.85625,36.6925 40.92875,36.62 41.07375,36.4975 C 41.195,36.425 41.315,36.3525 41.315,36.33 C 41.38875,36.2325 41.46,36.20875 41.50875,36.08625 C 41.7025,35.84625 41.72625,35.58 41.72625,35.31125 C 41.655,35.045 41.5325,34.85375 41.34,34.70875"
     id="path2943"
     style="fill:#005FA4;fill-opacity:1;fill-rule:evenodd;stroke:none" />
  <path
     d="M 43.35,32.5525 C 43.3,32.625 43.27625,32.65 43.17875,32.69625 C 43.155,32.74625 43.1075,32.74625 43.035,32.74625 C 42.98625,32.74625 42.88875,32.69625 42.76875,32.625 L 40.85625,31.65875 C 40.6625,31.53625 40.54,31.46375 40.51625,31.43875 C 40.46875,31.32 40.46875,31.245 40.54,31.12625 L 40.59,31.005 L 40.51625,30.98 L 39.8875,32.23875 L 39.985,32.2875 L 40.00875,32.165 C 40.0575,32.09375 40.08125,32.045 40.15375,31.99875 C 40.2025,31.9725 40.27625,31.92375 40.32375,31.92375 C 40.34875,31.9725 40.46875,31.99875 40.61375,32.09375 L 42.52625,33.04 C 42.72,33.13375 42.81625,33.20625 42.84125,33.27875 C 42.88875,33.3525 42.88875,33.475 42.81625,33.59375 L 42.76875,33.69125 L 42.84125,33.73875 L 43.495,32.48 L 43.42125,32.43125 L 43.35,32.5525 z"
     id="path2945"
     style="fill:#005FA4;fill-opacity:1;fill-rule:evenodd;stroke:none" />
  <path
     d="M 44.48625,29.11625 C 44.4625,29.23875 44.41375,29.31125 44.34125,29.3575 C 44.26875,29.38375 44.14875,29.38375 43.955,29.31125 L 41.50875,28.65625 L 41.63125,28.19625 C 41.655,28.07625 41.7025,27.97875 41.77625,27.8825 C 41.84875,27.8575 41.9225,27.7875 42.0425,27.7875 C 42.09,27.73875 42.1875,27.73875 42.3075,27.7875 L 42.35625,27.68875 L 41.63125,27.495 L 40.905,30.1575 L 41.63125,30.39875 L 41.655,30.27875 C 41.50875,30.23 41.4375,30.1575 41.34,30.08625 C 41.26875,30.0125 41.24375,29.94 41.24375,29.84125 C 41.24375,29.77 41.24375,29.65 41.26875,29.50625 L 41.38875,29.11625 L 43.8325,29.77 C 44.02625,29.82125 44.1,29.8925 44.1725,29.94 C 44.22,30.0125 44.22,30.1325 44.1725,30.23 L 44.1725,30.35 L 44.26875,30.39875 L 44.6075,28.99625 L 44.53625,28.99625 L 44.48625,29.11625 z"
     id="path2947"
     style="fill:#005FA4;fill-opacity:1;fill-rule:evenodd;stroke:none" />
  <path
     d="M 45.26,24.49375 L 45.2125,24.615 C 45.2125,24.735 45.1875,24.8575 45.09125,24.88125 C 45.0675,24.9275 44.89875,24.9775 44.73,24.9275 L 43.88125,24.88125 L 42.69625,24.01 C 42.52625,23.88875 42.43,23.76875 42.38125,23.695 C 42.3075,23.64625 42.26,23.57375 42.235,23.45375 C 42.1875,23.38125 42.1875,23.3575 42.1875,23.28375 L 42.1875,23.23375 L 42.09,23.23375 L 41.995,24.39875 L 42.115,24.39875 C 42.115,24.30125 42.115,24.2275 42.1625,24.20125 C 42.1875,24.1525 42.1875,24.13125 42.235,24.13125 C 42.26,24.0825 42.3075,24.0825 42.35625,24.0825 C 42.45375,24.0825 42.52625,24.1525 42.69625,24.2275 L 43.68875,24.9775 L 42.575,25.58375 C 42.38125,25.65625 42.3075,25.72875 42.235,25.72875 C 42.1625,25.70375 42.115,25.65625 42.09,25.58375 C 42.0425,25.535 42.0425,25.4625 42.0425,25.39 L 42.0425,25.315 L 41.96875,25.315 L 41.84875,26.74625 L 41.9225,26.74625 C 41.9225,26.6475 41.96875,26.62375 41.96875,26.57625 C 42.0425,26.47625 42.09,26.38375 42.1625,26.35875 C 42.1875,26.31 42.3075,26.28375 42.45375,26.165 L 43.905,25.34125 L 44.68125,25.44 C 44.87375,25.44 44.995,25.44 45.02,25.51125 C 45.14125,25.535 45.1875,25.65625 45.14125,25.8025 L 45.14125,25.92125 L 45.2125,25.92125 L 45.33375,24.49375 L 45.26,24.49375 z"
     id="path2949"
     style="fill:#005FA4;fill-opacity:1;fill-rule:evenodd;stroke:none" />
</svg>
